<mxfile host="app.diagrams.net" agent="Mozilla/5.0 (Windows NT 10.0; Win64; x64) AppleWebKit/537.36 (KHTML, like Gecko) Chrome/134.0.0.0 Safari/537.36" version="26.1.1">
  <diagram name="PaginÄƒ-1" id="-lHNQOO6cr7emJKbl-XV">
    <mxGraphModel dx="2580" dy="1044" grid="1" gridSize="10" guides="1" tooltips="1" connect="1" arrows="1" fold="1" page="1" pageScale="1" pageWidth="827" pageHeight="1169" math="0" shadow="0">
      <root>
        <mxCell id="0" />
        <mxCell id="1" parent="0" />
        <mxCell id="wRfC6B3LcgEslGy45--3-3" value="Actor" style="shape=umlActor;verticalLabelPosition=bottom;verticalAlign=top;html=1;" parent="1" vertex="1">
          <mxGeometry x="89" y="344" width="200" height="400" as="geometry" />
        </mxCell>
        <mxCell id="wRfC6B3LcgEslGy45--3-4" value="AddEmployee" style="ellipse;whiteSpace=wrap;html=1;" parent="1" vertex="1">
          <mxGeometry x="599" y="164" width="140" height="70" as="geometry" />
        </mxCell>
        <mxCell id="wRfC6B3LcgEslGy45--3-5" value="RemoveEmployee" style="ellipse;whiteSpace=wrap;html=1;" parent="1" vertex="1">
          <mxGeometry x="599" y="234" width="140" height="70" as="geometry" />
        </mxCell>
        <mxCell id="wRfC6B3LcgEslGy45--3-6" value="AddTask" style="ellipse;whiteSpace=wrap;html=1;" parent="1" vertex="1">
          <mxGeometry x="599" y="304" width="140" height="70" as="geometry" />
        </mxCell>
        <mxCell id="wRfC6B3LcgEslGy45--3-7" value="RemoveTask" style="ellipse;whiteSpace=wrap;html=1;" parent="1" vertex="1">
          <mxGeometry x="599" y="374" width="140" height="70" as="geometry" />
        </mxCell>
        <mxCell id="wRfC6B3LcgEslGy45--3-8" value="ShowEmployees" style="ellipse;whiteSpace=wrap;html=1;" parent="1" vertex="1">
          <mxGeometry x="599" y="444" width="140" height="70" as="geometry" />
        </mxCell>
        <mxCell id="wRfC6B3LcgEslGy45--3-9" value="ShowEmployeeTasks" style="ellipse;whiteSpace=wrap;html=1;" parent="1" vertex="1">
          <mxGeometry x="599" y="514" width="140" height="70" as="geometry" />
        </mxCell>
        <mxCell id="wRfC6B3LcgEslGy45--3-10" value="ShowSimpleTasks" style="ellipse;whiteSpace=wrap;html=1;" parent="1" vertex="1">
          <mxGeometry x="599" y="584" width="140" height="70" as="geometry" />
        </mxCell>
        <mxCell id="wRfC6B3LcgEslGy45--3-11" value="ShowComplexTasks" style="ellipse;whiteSpace=wrap;html=1;" parent="1" vertex="1">
          <mxGeometry x="599" y="654" width="140" height="70" as="geometry" />
        </mxCell>
        <mxCell id="wRfC6B3LcgEslGy45--3-12" value="AssignTask" style="ellipse;whiteSpace=wrap;html=1;" parent="1" vertex="1">
          <mxGeometry x="599" y="724" width="140" height="70" as="geometry" />
        </mxCell>
        <mxCell id="wRfC6B3LcgEslGy45--3-13" value="ModifyTask" style="ellipse;whiteSpace=wrap;html=1;" parent="1" vertex="1">
          <mxGeometry x="599" y="794" width="140" height="70" as="geometry" />
        </mxCell>
        <mxCell id="wRfC6B3LcgEslGy45--3-14" value="WorkDuration" style="ellipse;whiteSpace=wrap;html=1;" parent="1" vertex="1">
          <mxGeometry x="599" y="864" width="140" height="70" as="geometry" />
        </mxCell>
        <mxCell id="wRfC6B3LcgEslGy45--3-15" value="Completed/Uncompleted" style="ellipse;whiteSpace=wrap;html=1;" parent="1" vertex="1">
          <mxGeometry x="599" y="934" width="140" height="70" as="geometry" />
        </mxCell>
        <mxCell id="wRfC6B3LcgEslGy45--3-17" value="" style="endArrow=none;html=1;rounded=0;entryX=0;entryY=0.5;entryDx=0;entryDy=0;" parent="1" target="wRfC6B3LcgEslGy45--3-4" edge="1">
          <mxGeometry width="50" height="50" relative="1" as="geometry">
            <mxPoint x="329" y="554" as="sourcePoint" />
            <mxPoint x="539" y="484" as="targetPoint" />
          </mxGeometry>
        </mxCell>
        <mxCell id="wRfC6B3LcgEslGy45--3-18" value="" style="endArrow=none;html=1;rounded=0;entryX=0;entryY=0.5;entryDx=0;entryDy=0;" parent="1" target="wRfC6B3LcgEslGy45--3-5" edge="1">
          <mxGeometry width="50" height="50" relative="1" as="geometry">
            <mxPoint x="329" y="554" as="sourcePoint" />
            <mxPoint x="429" y="354" as="targetPoint" />
          </mxGeometry>
        </mxCell>
        <mxCell id="wRfC6B3LcgEslGy45--3-19" value="" style="endArrow=none;html=1;rounded=0;entryX=0;entryY=0.5;entryDx=0;entryDy=0;" parent="1" target="wRfC6B3LcgEslGy45--3-6" edge="1">
          <mxGeometry width="50" height="50" relative="1" as="geometry">
            <mxPoint x="329" y="554" as="sourcePoint" />
            <mxPoint x="329" y="484" as="targetPoint" />
          </mxGeometry>
        </mxCell>
        <mxCell id="wRfC6B3LcgEslGy45--3-20" value="" style="endArrow=none;html=1;rounded=0;entryX=0;entryY=0.5;entryDx=0;entryDy=0;" parent="1" target="wRfC6B3LcgEslGy45--3-7" edge="1">
          <mxGeometry width="50" height="50" relative="1" as="geometry">
            <mxPoint x="329" y="554" as="sourcePoint" />
            <mxPoint x="329" y="484" as="targetPoint" />
          </mxGeometry>
        </mxCell>
        <mxCell id="wRfC6B3LcgEslGy45--3-21" value="" style="endArrow=none;html=1;rounded=0;exitX=0;exitY=0.5;exitDx=0;exitDy=0;" parent="1" source="wRfC6B3LcgEslGy45--3-8" edge="1">
          <mxGeometry width="50" height="50" relative="1" as="geometry">
            <mxPoint x="279" y="614" as="sourcePoint" />
            <mxPoint x="329" y="554" as="targetPoint" />
          </mxGeometry>
        </mxCell>
        <mxCell id="wRfC6B3LcgEslGy45--3-22" value="" style="endArrow=none;html=1;rounded=0;exitX=0;exitY=0.5;exitDx=0;exitDy=0;" parent="1" source="wRfC6B3LcgEslGy45--3-9" edge="1">
          <mxGeometry width="50" height="50" relative="1" as="geometry">
            <mxPoint x="279" y="664" as="sourcePoint" />
            <mxPoint x="329" y="554" as="targetPoint" />
          </mxGeometry>
        </mxCell>
        <mxCell id="wRfC6B3LcgEslGy45--3-23" value="" style="endArrow=none;html=1;rounded=0;entryX=0;entryY=0.5;entryDx=0;entryDy=0;" parent="1" target="wRfC6B3LcgEslGy45--3-10" edge="1">
          <mxGeometry width="50" height="50" relative="1" as="geometry">
            <mxPoint x="329" y="554" as="sourcePoint" />
            <mxPoint x="229" y="494" as="targetPoint" />
          </mxGeometry>
        </mxCell>
        <mxCell id="wRfC6B3LcgEslGy45--3-24" value="" style="endArrow=none;html=1;rounded=0;entryX=0;entryY=0.5;entryDx=0;entryDy=0;" parent="1" target="wRfC6B3LcgEslGy45--3-11" edge="1">
          <mxGeometry width="50" height="50" relative="1" as="geometry">
            <mxPoint x="329" y="554" as="sourcePoint" />
            <mxPoint x="159" y="744" as="targetPoint" />
          </mxGeometry>
        </mxCell>
        <mxCell id="wRfC6B3LcgEslGy45--3-25" value="" style="endArrow=none;html=1;rounded=0;exitX=0;exitY=0.5;exitDx=0;exitDy=0;" parent="1" source="wRfC6B3LcgEslGy45--3-12" edge="1">
          <mxGeometry width="50" height="50" relative="1" as="geometry">
            <mxPoint x="149" y="844" as="sourcePoint" />
            <mxPoint x="329" y="554" as="targetPoint" />
          </mxGeometry>
        </mxCell>
        <mxCell id="wRfC6B3LcgEslGy45--3-26" value="" style="endArrow=none;html=1;rounded=0;exitX=0;exitY=0.5;exitDx=0;exitDy=0;" parent="1" source="wRfC6B3LcgEslGy45--3-13" edge="1">
          <mxGeometry width="50" height="50" relative="1" as="geometry">
            <mxPoint x="419" y="714" as="sourcePoint" />
            <mxPoint x="329" y="554" as="targetPoint" />
          </mxGeometry>
        </mxCell>
        <mxCell id="wRfC6B3LcgEslGy45--3-27" value="" style="endArrow=none;html=1;rounded=0;entryX=0;entryY=0.5;entryDx=0;entryDy=0;" parent="1" target="wRfC6B3LcgEslGy45--3-14" edge="1">
          <mxGeometry width="50" height="50" relative="1" as="geometry">
            <mxPoint x="329" y="554" as="sourcePoint" />
            <mxPoint x="509" y="714" as="targetPoint" />
          </mxGeometry>
        </mxCell>
        <mxCell id="wRfC6B3LcgEslGy45--3-28" value="" style="endArrow=none;html=1;rounded=0;entryX=0;entryY=0.5;entryDx=0;entryDy=0;" parent="1" target="wRfC6B3LcgEslGy45--3-15" edge="1">
          <mxGeometry width="50" height="50" relative="1" as="geometry">
            <mxPoint x="329" y="554" as="sourcePoint" />
            <mxPoint x="509" y="714" as="targetPoint" />
          </mxGeometry>
        </mxCell>
      </root>
    </mxGraphModel>
  </diagram>
</mxfile>
